<svg width="19" height="20" viewBox="0 0 19 20" fill="none" xmlns="http://www.w3.org/2000/svg">
<g id="Message 10">
<g id="Vector">
<path d="M7.02083 8.85417C7.02083 9.36043 6.61043 9.77083 6.10417 9.77083C5.59791 9.77083 5.1875 9.36043 5.1875 8.85417C5.1875 8.34791 5.59791 7.9375 6.10417 7.9375C6.61043 7.9375 7.02083 8.34791 7.02083 8.85417Z" fill="white"/>
<path d="M10.6875 8.85417C10.6875 9.36043 10.2771 9.77083 9.77083 9.77083C9.26457 9.77083 8.85417 9.36043 8.85417 8.85417C8.85417 8.34791 9.26457 7.9375 9.77083 7.9375C10.2771 7.9375 10.6875 8.34791 10.6875 8.85417Z" fill="white"/>
<path d="M14.3542 8.85417C14.3542 9.36043 13.9438 9.77083 13.4375 9.77083C12.9312 9.77083 12.5208 9.36043 12.5208 8.85417C12.5208 8.34791 12.9312 7.9375 13.4375 7.9375C13.9438 7.9375 14.3542 8.34791 14.3542 8.85417Z" fill="white"/>
</g>
<path id="Vector_2" d="M18.0207 3.35482C18.0207 4.36734 17.1999 5.18815 16.1873 5.18815C15.1748 5.18815 14.354 4.36734 14.354 3.35482C14.354 2.3423 15.1748 1.52148 16.1873 1.52148C17.1999 1.52148 18.0207 2.3423 18.0207 3.35482Z" stroke="white" stroke-width="1.375"/>
<path id="Vector_3" d="M12.8492 1.83592C13.0415 1.41377 12.7912 0.847403 12.3274 0.840815C11.8461 0.833981 11.3125 0.833982 10.7182 0.833984H8.82332C7.56591 0.83398 6.5801 0.833977 5.78778 0.898712C4.98098 0.96463 4.31446 1.10108 3.71118 1.40847C2.71941 1.9138 1.91307 2.72014 1.40774 3.71191C1.10035 4.3152 0.963898 4.98171 0.89798 5.78851C0.833246 6.58082 0.833249 7.56661 0.833252 8.82399V12.7308C0.833252 15.0199 2.68896 16.8757 4.9781 16.8757H5.52971C5.7575 16.8757 5.91327 17.1057 5.82867 17.3172C5.19923 18.8908 7.0115 20.3134 8.39063 19.3284L10.7838 17.6189L10.8288 17.5869C11.4786 17.129 12.253 16.8808 13.0479 16.8757L13.1169 16.8757H13.143C13.4043 16.8757 13.5619 16.8757 13.6867 16.8698C16.4017 16.7412 18.5738 14.5691 18.7024 11.8541C18.7083 11.7293 18.7083 11.5862 18.7083 11.3511V8.82406C18.7083 8.22975 18.7083 7.69608 18.7014 7.21487C18.6948 6.75101 18.1285 6.50069 17.7063 6.69307C17.4841 6.79434 17.3235 7.01088 17.3268 7.25505C17.3331 7.7192 17.3333 8.24675 17.3333 8.85482V11.3288C17.3333 11.593 17.3331 11.7011 17.3289 11.789C17.2339 13.7958 15.6284 15.4013 13.6216 15.4963C13.5339 15.5004 13.4118 15.5007 13.1169 15.5007L13.0391 15.5008C11.9636 15.5076 10.916 15.8434 10.0368 16.4629L9.9846 16.5001L7.59142 18.2095C7.32975 18.3964 6.98589 18.1265 7.10532 17.8279C7.5512 16.7132 6.73027 15.5007 5.52971 15.5007H4.9781C3.44836 15.5007 2.20825 14.2605 2.20825 12.7308V8.85482C2.20825 7.56002 2.20879 6.63027 2.26841 5.90048C2.32738 5.17871 2.44071 4.71329 2.63287 4.33615C3.00638 3.6031 3.60237 3.00711 4.33541 2.63361C4.71256 2.44144 5.17798 2.32812 5.89975 2.26915C6.62954 2.20952 7.55929 2.20898 8.85409 2.20898H10.6874C11.2955 2.20898 11.823 2.2091 12.2872 2.2154C12.5314 2.21872 12.7479 2.05812 12.8492 1.83592Z" fill="white"/>
</g>
</svg>
