<svg width="17" height="20" viewBox="0 0 17 20" fill="none" xmlns="http://www.w3.org/2000/svg">
<g id="Location">
<path id="Vector" d="M10.9332 17.2379L10.4168 16.833L10.4168 16.833L10.9332 17.2379ZM6.06681 17.2379L5.5504 17.6429L6.06681 17.2379ZM8.5 19.2548L8.5 18.5985L8.5 19.2548ZM14.8438 8.40761C14.8438 9.48079 14.2841 10.9168 13.4033 12.474C12.537 14.0055 11.4174 15.5569 10.4168 16.833L11.4496 17.6429C12.47 16.3417 13.6338 14.7323 14.5457 13.1202C15.443 11.5338 16.1562 9.84324 16.1562 8.40761H14.8438ZM6.58321 16.833C5.58256 15.5569 4.463 14.0055 3.59672 12.474C2.71592 10.9168 2.15625 9.48079 2.15625 8.40761H0.84375C0.84375 9.84324 1.55697 11.5338 2.45431 13.1202C3.36618 14.7323 4.53002 16.3417 5.5504 17.6429L6.58321 16.833ZM2.15625 8.40761C2.15625 4.56375 5.04093 1.53125 8.5 1.53125V0.21875C4.22708 0.21875 0.84375 3.93118 0.84375 8.40761H2.15625ZM8.5 1.53125C11.9591 1.53125 14.8438 4.56375 14.8438 8.40761H16.1562C16.1562 3.93118 12.7729 0.21875 8.5 0.21875V1.53125ZM10.4168 16.833C9.8752 17.5236 9.51861 17.9747 9.19928 18.2648C8.90806 18.5294 8.71365 18.5985 8.5 18.5985L8.5 19.911C9.13793 19.911 9.63292 19.6441 10.0818 19.2363C10.5026 18.8541 10.9368 18.2968 11.4496 17.6429L10.4168 16.833ZM5.5504 17.6429C6.06322 18.2968 6.49744 18.8541 6.91821 19.2363C7.36708 19.6441 7.86207 19.911 8.5 19.911L8.5 18.5985C8.28635 18.5985 8.09194 18.5294 7.80072 18.2648C7.48139 17.9747 7.1248 17.5236 6.58321 16.833L5.5504 17.6429ZM5.21875 8.75C5.21875 10.5622 6.68782 12.0312 8.5 12.0312V10.7188C7.41269 10.7188 6.53125 9.83731 6.53125 8.75H5.21875ZM8.5 12.0312C10.3122 12.0312 11.7812 10.5622 11.7812 8.75H10.4688C10.4688 9.83731 9.58731 10.7188 8.5 10.7188V12.0312ZM11.7812 8.75C11.7812 6.93782 10.3122 5.46875 8.5 5.46875V6.78125C9.58731 6.78125 10.4688 7.66269 10.4688 8.75H11.7812ZM8.5 5.46875C6.68782 5.46875 5.21875 6.93782 5.21875 8.75H6.53125C6.53125 7.66269 7.41269 6.78125 8.5 6.78125V5.46875Z" fill="white"/>
</g>
</svg>
