<svg width="19" height="19" viewBox="0 0 19 19" fill="none" xmlns="http://www.w3.org/2000/svg">
<g id="Gift 2">
<path id="Vector" d="M4.32576 17.0261L4.06452 17.6281L4.06452 17.6281L4.32576 17.0261ZM1.95803 14.5456L1.34775 14.7869L1.34775 14.7869L1.95803 14.5456ZM17.042 14.5456L17.6523 14.7869L17.6523 14.7869L17.042 14.5456ZM14.6742 17.0261L14.9355 17.6281L14.9355 17.6281L14.6742 17.0261ZM9.5 16.5L10.1563 16.5L10.1563 16.5L9.5 16.5ZM1.66204 8.21488L1.27898 8.74773L1.27898 8.74773L1.66204 8.21488ZM8.1875 16.7188C7.15885 16.7188 6.42179 16.7184 5.84048 16.6768C5.2657 16.6357 4.8928 16.5568 4.587 16.4241L4.06452 17.6281C4.56272 17.8443 5.10144 17.9398 5.74691 17.986C6.38585 18.0316 7.17766 18.0312 8.1875 18.0312V16.7188ZM0.96875 10.5C0.96875 11.5592 0.968426 12.385 1.01177 13.0504C1.05545 13.7212 1.14551 14.2754 1.34775 14.7869L2.56831 14.3043C2.43752 13.9736 2.36106 13.5727 2.32149 12.9651C2.28157 12.3522 2.28125 11.5764 2.28125 10.5H0.96875ZM4.587 16.4241C3.68041 16.0307 2.95078 15.2717 2.56831 14.3043L1.34775 14.7869C1.85335 16.0657 2.82711 17.0912 4.06452 17.6281L4.587 16.4241ZM16.7188 10.5C16.7188 11.5764 16.7184 12.3522 16.6785 12.9651C16.6389 13.5727 16.5625 13.9736 16.4317 14.3043L17.6523 14.7869C17.8545 14.2754 17.9445 13.7212 17.9882 13.0504C18.0316 12.385 18.0312 11.5592 18.0312 10.5H16.7188ZM10.8125 18.0312C11.8223 18.0312 12.6142 18.0316 13.2531 17.986C13.8986 17.9398 14.4373 17.8443 14.9355 17.6281L14.413 16.4241C14.1072 16.5568 13.7343 16.6357 13.1595 16.6768C12.5782 16.7184 11.8412 16.7188 10.8125 16.7188V18.0312ZM16.4317 14.3043C16.0492 15.2717 15.3196 16.0307 14.413 16.4241L14.9355 17.6281C16.1729 17.0912 17.1467 16.0657 17.6523 14.7869L16.4317 14.3043ZM2.28125 10.5C2.28125 9.21091 2.22151 8.8886 2.27865 8.24558L0.971297 8.12942C0.908141 8.84023 0.96875 9.37485 0.96875 10.5H2.28125ZM16.0625 4.90625C16.9082 4.90625 17.5938 5.59181 17.5938 6.4375H18.9062C18.9062 4.86694 17.6331 3.59375 16.0625 3.59375V4.90625ZM2.9375 3.59375C1.36694 3.59375 0.09375 4.86694 0.09375 6.4375H1.40625C1.40625 5.59181 2.09181 4.90625 2.9375 4.90625V3.59375ZM8.84375 4.25L8.84375 16.5L10.1563 16.5L10.1562 4.25L8.84375 4.25ZM11.25 3.59375H9.5V4.90625H11.25V3.59375ZM10.1562 4.25V2.5H8.84375V4.25H10.1562ZM12.3438 2.5C12.3438 3.10406 11.8541 3.59375 11.25 3.59375V4.90625C12.5789 4.90625 13.6562 3.82894 13.6562 2.5H12.3438ZM11.25 1.40625C11.8541 1.40625 12.3438 1.89594 12.3438 2.5H13.6562C13.6562 1.17106 12.5789 0.09375 11.25 0.09375V1.40625ZM11.25 0.09375C9.92106 0.09375 8.84375 1.17106 8.84375 2.5H10.1562C10.1562 1.89594 10.6459 1.40625 11.25 1.40625V0.09375ZM7.75 4.90625H9.5V3.59375H7.75V4.90625ZM5.34375 2.5C5.34375 3.82894 6.42106 4.90625 7.75 4.90625V3.59375C7.14594 3.59375 6.65625 3.10406 6.65625 2.5H5.34375ZM7.75 0.09375C6.42106 0.09375 5.34375 1.17106 5.34375 2.5H6.65625C6.65625 1.89594 7.14594 1.40625 7.75 1.40625V0.09375ZM7.75 1.40625C8.35406 1.40625 8.84375 1.89594 8.84375 2.5H10.1562C10.1562 1.17106 9.07894 0.09375 7.75 0.09375V1.40625ZM2.9375 4.90625H9.5V3.59375H2.9375V4.90625ZM9.5 4.90625H16.0625V3.59375H9.5V4.90625ZM10.8125 16.7188H9.5V18.0312H10.8125V16.7188ZM9.5 16.7188H8.1875V18.0312H9.5V16.7188ZM8.84375 16.5L8.84375 17.375L10.1562 17.375L10.1563 16.5L8.84375 16.5ZM16.0625 7.96875H9.5V9.28125H16.0625V7.96875ZM9.5 7.96875H2.9375V9.28125H9.5V7.96875ZM2.9375 7.96875C2.6035 7.96875 2.29625 7.86258 2.04509 7.68203L1.27898 8.74773C1.74593 9.08341 2.31958 9.28125 2.9375 9.28125V7.96875ZM2.04509 7.68203C1.6569 7.40296 1.40625 6.94951 1.40625 6.4375H0.09375C0.09375 7.38982 0.562508 8.23267 1.27898 8.74773L2.04509 7.68203ZM17.5938 6.4375C17.5938 6.95547 17.3372 7.4136 16.9412 7.69173L17.6957 8.76573C18.4265 8.25239 18.9062 7.40101 18.9062 6.4375H17.5938ZM16.9412 7.69173C16.6927 7.86635 16.3905 7.96875 16.0625 7.96875V9.28125C16.6692 9.28125 17.2334 9.0905 17.6957 8.76573L16.9412 7.69173ZM18.0312 10.5C18.0312 9.32321 18.0317 8.85893 17.9723 8.17218L16.6647 8.28528C16.7183 8.9056 16.7188 9.31192 16.7188 10.5H18.0312Z" fill="white"/>
</g>
</svg>
