<svg width="157" height="250" viewBox="0 0 157 250" fill="none" xmlns="http://www.w3.org/2000/svg">
<g filter="url(#filter0_d_376_2588)">
<g filter="url(#filter1_d_376_2588)">
<path fill-rule="evenodd" clip-rule="evenodd" d="M19.2428 3.09277C12.4813 3.09763 7.00394 8.58284 7.00879 15.3444L7.10988 156.137C7.11474 162.898 12.6 168.375 19.3615 168.371L137.708 168.286C144.47 168.281 149.947 162.795 149.942 156.034L149.841 15.2418C149.837 8.4803 144.351 3.00294 137.59 3.0078L19.2428 3.09277ZM137.003 23.839C140.948 23.8362 144.143 20.6365 144.14 16.6923C144.137 12.7481 140.937 9.55294 136.993 9.55577C133.049 9.5586 129.854 12.7583 129.857 16.7025C129.859 20.6467 133.059 23.8419 137.003 23.839Z" fill="#C73659" fill-opacity="0.8" shape-rendering="crispEdges"/>
</g>
<g filter="url(#filter2_i_376_2588)">
<rect x="31.8511" y="23.5996" width="93.9173" height="124.867" rx="12.2428" transform="rotate(-0.0411388 31.8511 23.5996)" fill="#D9D9D9"/>
</g>
<g filter="url(#filter3_d_376_2588)">
<g clip-path="url(#clip0_376_2588)">
<rect x="7.11865" y="168.38" width="142.833" height="71.4163" rx="12.2428" transform="rotate(-0.0411388 7.11865 168.38)" fill="#C73659" fill-opacity="0.8" shape-rendering="crispEdges"/>
<path d="M119.379 221.558C119.379 221.558 119.374 221.561 119.372 221.562C119.368 221.565 119.365 221.567 119.36 221.568C119.366 221.564 119.373 221.562 119.379 221.558ZM119.379 221.558C119.379 221.558 119.374 221.561 119.372 221.562C119.368 221.565 119.365 221.567 119.36 221.568C119.366 221.564 119.373 221.562 119.379 221.558ZM100.829 209.816C103.127 202.795 107.717 196.581 113.874 192.86C127.502 184.623 145.64 189.547 153.264 203.747C160.331 216.911 156.651 235.526 144.463 244.369C142.875 245.52 140.807 246.01 139.361 247.375C138.004 248.655 137.823 250.646 137.733 252.477C137.684 253.473 138.006 255.284 136.526 254.675C133.284 253.34 130.071 251.859 126.737 250.797C125.225 250.316 123.718 249.821 122.204 249.344C113.768 246.684 106.141 242.173 102.045 233.603C98.5859 226.362 98.3047 217.527 100.828 209.817L100.829 209.816ZM128.992 209.399C129.235 208.201 128.296 206.854 127.008 206.555C125.752 206.263 124.49 207.193 124.186 208.633C123.917 209.913 124.697 211.191 125.907 211.449C127.162 211.717 128.734 210.674 128.992 209.399ZM113.774 226.882C113.871 227.052 114.044 227.151 114.221 227.195C114.392 227.238 114.608 227.181 114.753 227.078C114.922 226.958 114.998 226.796 115.06 226.601C115.07 226.567 115.081 226.532 115.091 226.498C115.081 226.526 115.071 226.555 115.062 226.584C115.083 226.52 115.104 226.456 115.125 226.393C115.113 226.427 115.102 226.461 115.091 226.496C115.315 225.855 115.611 225.245 115.969 224.674C115.965 224.678 115.962 224.684 115.958 224.688C115.987 224.644 116.015 224.6 116.044 224.555C116.022 224.59 115.998 224.626 115.977 224.661C116.273 224.213 116.606 223.79 116.97 223.401C117.06 223.306 117.15 223.212 117.242 223.121C117.284 223.079 117.327 223.038 117.37 222.997C117.383 222.985 117.409 222.962 117.43 222.942C117.433 222.939 117.437 222.935 117.441 222.932C117.442 222.93 117.444 222.929 117.445 222.928C117.447 222.926 117.448 222.925 117.45 222.924C117.453 222.921 117.455 222.918 117.457 222.917C117.46 222.914 117.462 222.912 117.464 222.911C117.465 222.909 117.468 222.907 117.47 222.906C117.471 222.905 117.472 222.905 117.473 222.904C117.622 222.772 117.772 222.643 117.928 222.519C118.317 222.21 118.728 221.931 119.155 221.685C119.216 221.649 119.278 221.614 119.338 221.581C119.349 221.575 119.359 221.569 119.37 221.563C119.366 221.566 119.362 221.568 119.358 221.569C119.363 221.565 119.37 221.563 119.377 221.559C119.471 221.513 119.564 221.464 119.66 221.418C119.876 221.314 120.096 221.217 120.318 221.13C120.735 220.966 121.162 220.831 121.596 220.726C121.722 220.699 121.847 220.674 121.975 220.652C122.367 220.582 122.644 220.279 122.638 219.847C122.636 219.664 122.533 219.463 122.408 219.345C122.283 219.228 122.061 219.134 121.89 219.164C121.084 219.306 120.291 219.533 119.534 219.865C118.186 220.456 116.951 221.321 115.924 222.423C114.893 223.526 114.127 224.86 113.675 226.325C113.618 226.51 113.684 226.726 113.774 226.883L113.774 226.882ZM118.358 201.454C117.667 200.325 115.881 199.91 114.848 200.641C113.877 201.327 113.627 203.002 114.317 204.177C114.992 205.324 116.489 205.591 117.663 204.775C118.708 204.049 119.022 202.543 118.357 201.455L118.358 201.454ZM104.823 218.684C105.355 218.912 105.934 218.86 106.456 219.138C106.95 219.4 107.321 219.799 107.602 220.295C108.057 221.096 109.217 220.269 108.764 219.47C108.307 218.663 107.599 218.006 106.761 217.668C106.347 217.502 105.93 217.468 105.503 217.362C105.208 217.289 105.283 217.038 105.409 216.785C105.747 216.102 106.555 215.804 107.238 215.805C108.18 215.81 109.074 216.341 109.824 216.879C110.56 217.408 111.339 216.479 110.757 215.776C109.978 214.834 109.08 213.766 108.978 212.452C108.9 211.451 109.381 210.258 110.499 210.318C111.539 210.375 111.45 211.887 111.772 212.639C112.28 213.822 113.41 214.236 114.532 214.525C115.397 214.747 115.679 213.309 114.819 213.088C114.238 212.938 113.5 212.78 113.141 212.224C112.801 211.699 112.812 210.972 112.59 210.389C112.081 209.055 110.692 208.53 109.422 209.073C108.047 209.661 107.437 211.257 107.609 212.728C107.682 213.353 107.871 213.922 108.131 214.454C107.837 214.387 107.534 214.349 107.222 214.348C106.178 214.343 105.055 214.833 104.42 215.747C103.769 216.68 103.657 218.188 104.824 218.684L104.823 218.684ZM119.379 221.558C119.379 221.558 119.374 221.561 119.372 221.562C119.368 221.565 119.365 221.567 119.36 221.568C119.366 221.564 119.373 221.562 119.379 221.558ZM119.379 221.558C119.379 221.558 119.374 221.561 119.372 221.562C119.368 221.565 119.365 221.567 119.36 221.568C119.366 221.564 119.373 221.562 119.379 221.558Z" fill="white" fill-opacity="0.44"/>
</g>
</g>
<line x1="19.7559" y1="168.487" x2="137.315" y2="168.402" stroke="white" stroke-width="0.787691" stroke-linecap="round" stroke-dasharray="2.04 4.08"/>
</g>
<defs>
<filter id="filter0_d_376_2588" x="0.878601" y="0.959534" width="155.245" height="249.04" filterUnits="userSpaceOnUse" color-interpolation-filters="sRGB">
<feFlood flood-opacity="0" result="BackgroundImageFix"/>
<feColorMatrix in="SourceAlpha" type="matrix" values="0 0 0 0 0 0 0 0 0 0 0 0 0 0 0 0 0 0 127 0" result="hardAlpha"/>
<feOffset dy="4.08093"/>
<feGaussianBlur stdDeviation="3.0607"/>
<feComposite in2="hardAlpha" operator="out"/>
<feColorMatrix type="matrix" values="0 0 0 0 0.235294 0 0 0 0 0.388235 0 0 0 0 0.92549 0 0 0 0.1 0"/>
<feBlend mode="normal" in2="BackgroundImageFix" result="effect1_dropShadow_376_2588"/>
<feBlend mode="normal" in="SourceGraphic" in2="effect1_dropShadow_376_2588" result="shape"/>
</filter>
<filter id="filter1_d_376_2588" x="3.85802" y="3.00781" width="149.235" height="171.664" filterUnits="userSpaceOnUse" color-interpolation-filters="sRGB">
<feFlood flood-opacity="0" result="BackgroundImageFix"/>
<feColorMatrix in="SourceAlpha" type="matrix" values="0 0 0 0 0 0 0 0 0 0 0 0 0 0 0 0 0 0 127 0" result="hardAlpha"/>
<feOffset dy="3.15077"/>
<feGaussianBlur stdDeviation="1.57538"/>
<feComposite in2="hardAlpha" operator="out"/>
<feColorMatrix type="matrix" values="0 0 0 0 0 0 0 0 0 0 0 0 0 0 0 0 0 0 0.25 0"/>
<feBlend mode="normal" in2="BackgroundImageFix" result="effect1_dropShadow_376_2588"/>
<feBlend mode="normal" in="SourceGraphic" in2="effect1_dropShadow_376_2588" result="shape"/>
</filter>
<filter id="filter2_i_376_2588" x="31.8599" y="23.541" width="93.9893" height="128.067" filterUnits="userSpaceOnUse" color-interpolation-filters="sRGB">
<feFlood flood-opacity="0" result="BackgroundImageFix"/>
<feBlend mode="normal" in="SourceGraphic" in2="BackgroundImageFix" result="shape"/>
<feColorMatrix in="SourceAlpha" type="matrix" values="0 0 0 0 0 0 0 0 0 0 0 0 0 0 0 0 0 0 127 0" result="hardAlpha"/>
<feOffset dy="3.15077"/>
<feGaussianBlur stdDeviation="1.57538"/>
<feComposite in2="hardAlpha" operator="arithmetic" k2="-1" k3="1"/>
<feColorMatrix type="matrix" values="0 0 0 0 0 0 0 0 0 0 0 0 0 0 0 0 0 0 0.25 0"/>
<feBlend mode="normal" in2="shape" result="effect1_innerShadow_376_2588"/>
</filter>
<filter id="filter3_d_376_2588" x="3.96789" y="168.277" width="149.185" height="77.8201" filterUnits="userSpaceOnUse" color-interpolation-filters="sRGB">
<feFlood flood-opacity="0" result="BackgroundImageFix"/>
<feColorMatrix in="SourceAlpha" type="matrix" values="0 0 0 0 0 0 0 0 0 0 0 0 0 0 0 0 0 0 127 0" result="hardAlpha"/>
<feOffset dy="3.15077"/>
<feGaussianBlur stdDeviation="1.57538"/>
<feComposite in2="hardAlpha" operator="out"/>
<feColorMatrix type="matrix" values="0 0 0 0 0 0 0 0 0 0 0 0 0 0 0 0 0 0 0.25 0"/>
<feBlend mode="normal" in2="BackgroundImageFix" result="effect1_dropShadow_376_2588"/>
<feBlend mode="normal" in="SourceGraphic" in2="effect1_dropShadow_376_2588" result="shape"/>
</filter>
<clipPath id="clip0_376_2588">
<rect x="7.11865" y="168.38" width="142.833" height="71.4163" rx="12.2428" transform="rotate(-0.0411388 7.11865 168.38)" fill="white"/>
</clipPath>
</defs>
</svg>
